<?xml version="1.0" encoding="UTF-8"?>
<svg xmlns="http://www.w3.org/2000/svg" xmlns:xlink="http://www.w3.org/1999/xlink" width="14px" height="14px" viewBox="0 0 14 14" version="1.1">
<g id="surface1">
<path style=" stroke:none;fill-rule:nonzero;fill:rgb(0%,0%,0%);fill-opacity:1;" d="M 0 2.367188 C 0 2.714844 0.390625 3.066406 3.414062 5.472656 C 5.304688 6.972656 6.914062 8.191406 7.015625 8.191406 C 7.097656 8.191406 8.707031 6.984375 10.585938 5.53125 C 13.777344 3.039062 13.984375 2.84375 14 2.40625 L 14 1.960938 L 0 1.960938 Z M 0 2.367188 "/>
<path style=" stroke:none;fill-rule:nonzero;fill:rgb(0%,0%,0%);fill-opacity:1;" d="M 0 7.742188 L 0 12.039062 L 14 12.039062 L 14 7.839844 C 14 5.53125 13.972656 3.640625 13.945312 3.640625 C 13.902344 3.640625 12.347656 4.84375 10.484375 6.300781 C 8.609375 7.769531 7.015625 8.945312 6.914062 8.902344 C 6.777344 8.847656 1.050781 4.355469 0.253906 3.667969 C 0.015625 3.472656 0 3.667969 0 7.742188 Z M 0 7.742188 "/>
</g>
</svg>
