<?xml version="1.0" encoding="UTF-8"?>
<svg xmlns="http://www.w3.org/2000/svg" xmlns:xlink="http://www.w3.org/1999/xlink" width="14px" height="14px" viewBox="0 0 14 14" version="1.1">
<g id="surface1">
<path style=" stroke:none;fill-rule:nonzero;fill:rgb(0%,0%,0%);fill-opacity:1;" d="M 10.246094 0.152344 C 9.574219 0.351562 8.722656 1.273438 8.527344 1.988281 C 8.191406 3.277344 8.75 4.648438 9.871094 5.234375 C 10.710938 5.683594 11.96875 5.640625 12.699219 5.152344 C 13.566406 4.578125 13.929688 3.890625 13.929688 2.800781 C 13.929688 1.722656 13.566406 1.023438 12.738281 0.476562 C 12.136719 0.0703125 10.988281 -0.0703125 10.246094 0.152344 Z M 10.246094 0.152344 "/>
<path style=" stroke:none;fill-rule:nonzero;fill:rgb(0%,0%,0%);fill-opacity:1;" d="M 6.398438 3.792969 L 5.027344 4.480469 L 5.445312 5.011719 C 5.671875 5.292969 5.9375 5.796875 6.035156 6.117188 C 6.132812 6.453125 6.230469 6.71875 6.257812 6.71875 C 6.3125 6.71875 8.863281 5.445312 8.945312 5.375 C 8.972656 5.347656 8.835938 5.152344 8.652344 4.929688 C 8.46875 4.703125 8.230469 4.296875 8.132812 4.046875 C 8.035156 3.78125 7.910156 3.472656 7.867188 3.332031 C 7.785156 3.136719 7.589844 3.207031 6.398438 3.792969 Z M 6.398438 3.792969 "/>
<path style=" stroke:none;fill-rule:nonzero;fill:rgb(0%,0%,0%);fill-opacity:1;" d="M 1.847656 4.355469 C 1.191406 4.550781 0.320312 5.472656 0.125 6.1875 C -0.195312 7.433594 0.292969 8.734375 1.359375 9.394531 C 1.765625 9.644531 2.101562 9.730469 2.730469 9.730469 C 3.792969 9.730469 4.535156 9.367188 5.109375 8.554688 C 5.472656 8.035156 5.53125 7.839844 5.53125 7 C 5.53125 6.160156 5.472656 5.964844 5.109375 5.445312 C 4.410156 4.453125 3.039062 3.988281 1.847656 4.355469 Z M 1.847656 4.355469 "/>
<path style=" stroke:none;fill-rule:nonzero;fill:rgb(0%,0%,0%);fill-opacity:1;" d="M 6.035156 7.867188 C 5.9375 8.203125 5.671875 8.707031 5.433594 9.003906 C 5.207031 9.296875 5.039062 9.5625 5.054688 9.589844 C 5.125 9.644531 7.726562 10.921875 7.785156 10.921875 C 7.8125 10.921875 7.894531 10.652344 7.980469 10.316406 C 8.078125 9.996094 8.328125 9.492188 8.566406 9.199219 C 8.792969 8.902344 8.960938 8.636719 8.945312 8.609375 C 8.863281 8.554688 6.3125 7.28125 6.257812 7.28125 C 6.230469 7.28125 6.132812 7.546875 6.035156 7.867188 Z M 6.035156 7.867188 "/>
<path style=" stroke:none;fill-rule:nonzero;fill:rgb(0%,0%,0%);fill-opacity:1;" d="M 10.21875 8.566406 C 9.953125 8.664062 9.507812 8.972656 9.210938 9.269531 C 7.964844 10.515625 8.230469 12.65625 9.757812 13.59375 C 10.554688 14.097656 11.914062 14.070312 12.699219 13.550781 C 13.566406 12.976562 13.929688 12.292969 13.929688 11.199219 C 13.929688 10.121094 13.566406 9.421875 12.738281 8.875 C 12.125 8.46875 10.960938 8.328125 10.21875 8.566406 Z M 10.21875 8.566406 "/>
</g>
</svg>
